<svg id="Capa_1" enable-background="new 0 0 512.001 512.001" height="512" viewBox="0 0 512.001 512.001" width="512" xmlns="http://www.w3.org/2000/svg"><path d="m379.272 256.511c-3.624-2.126-8.288-.915-10.417 2.713l-116.325 198.21v-165.649c0-4.204-3.407-7.612-7.611-7.612s-7.611 3.407-7.611 7.612v164.191l-96.945-196.272c-1.862-3.769-6.426-5.316-10.195-3.454s-5.315 6.426-3.454 10.195l108.607 219.883-15.723 12.011c-3.341 2.552-3.98 7.329-1.428 10.669 2.552 3.341 7.329 3.981 10.669 1.428l16.128-12.321 16.521 12.367c3.365 2.517 8.135 1.832 10.655-1.533 2.518-3.366 1.833-8.136-1.533-10.655l-16.959-12.693 128.335-218.674c2.125-3.624.911-8.289-2.714-10.416z" fill="#595959"/><path d="m327.739 81.365c0 44.937-36.428 116.817-81.365 116.817s-81.365-71.881-81.365-116.817 36.428-81.365 81.365-81.365 81.365 36.429 81.365 81.365z" fill="#dd636e"/><path d="m246.374 0c-4.792 0-9.478.438-14.042 1.232 38.241 6.657 67.323 39.988 67.323 80.133 0 40.148-29.079 101.795-67.323 114.481 4.562 1.513 9.253 2.336 14.042 2.336 44.937 0 81.365-71.881 81.365-116.817 0-44.937-36.429-81.365-81.365-81.365z" fill="#da4a54"/><path d="m244.917 81.81c-29.653 0-56.268 12.992-74.477 33.589 11.756 40.133 41.318 82.784 75.933 82.784 33.894 0 62.943-40.893 75.176-80.274-18.228-22.049-45.789-36.099-76.632-36.099z" fill="#da4a54"/><path d="m456.785 156.407c0 44.937-36.428 116.817-81.365 116.817s-81.365-71.881-81.365-116.817 36.428-81.365 81.365-81.365 81.365 36.429 81.365 81.365z" fill="#69b76b"/><path d="m375.419 75.042c-4.792 0-9.478.438-14.042 1.232 38.241 6.657 67.323 39.988 67.323 80.133 0 40.148-29.079 101.795-67.323 114.481 4.562 1.513 9.253 2.336 14.042 2.336 44.937 0 81.365-71.881 81.365-116.817.001-44.937-36.428-81.365-81.365-81.365z" fill="#5ea55c"/><path d="m344.299 181.192c0-29.568-12.917-56.114-33.41-74.319-10.549 13.721-16.835 30.89-16.835 49.535 0 27.639 13.785 65.466 34.851 90.496 9.747-22.444 15.394-46.165 15.394-65.712z" fill="#5ea55c"/><path d="m217.947 156.407c0 44.937-36.428 116.817-81.365 116.817s-81.365-71.881-81.365-116.817 36.428-81.365 81.365-81.365 81.365 36.429 81.365 81.365z" fill="#80b4fb"/><path d="m136.582 75.042c-4.792 0-9.478.438-14.042 1.232 38.241 6.657 67.323 39.988 67.323 80.133 0 40.148-29.079 101.795-67.323 114.481 4.562 1.513 9.253 2.336 14.042 2.336 44.937 0 81.365-71.881 81.365-116.817 0-44.937-36.428-81.365-81.365-81.365z" fill="#61a2f9"/><path d="m145.536 181.192c0 23.859 8.411 53.934 22.425 80.316 29.358-22.22 49.986-71.286 49.986-105.1 0-23.455-9.938-44.578-25.817-59.427-27.987 17.58-46.594 48.72-46.594 84.211z" fill="#61a2f9"/><path d="m326.283 185.116c0 44.937-36.428 116.817-81.365 116.817s-81.365-71.881-81.365-116.817 36.428-81.365 81.365-81.365 81.365 36.429 81.365 81.365z" fill="#e7a52e"/><path d="m244.918 103.751c-4.792 0-9.478.438-14.042 1.232 38.241 6.657 67.323 39.988 67.323 80.133 0 40.148-29.079 101.795-67.323 114.481 4.562 1.513 9.253 2.336 14.042 2.336 44.937 0 81.365-71.881 81.365-116.817s-36.429-81.365-81.365-81.365z" fill="#e49824"/></svg>