<svg id="Capa_1" enable-background="new 0 0 512 512" height="512" viewBox="0 0 512 512" width="512" xmlns="http://www.w3.org/2000/svg"><path d="m17.872 177.41 90.108 233.804c.706 1.831 3.231 1.831 3.937 0l90.108-233.804z" fill="#ff5722"/><path d="m170.274 177.41-76.201 197.72 13.907 36.084c.706 1.831 3.231 1.831 3.937 0l90.108-233.804z" fill="#f4511e"/><path d="m309.976 177.41 90.108 233.804c.706 1.831 3.231 1.831 3.937 0l90.108-233.804z" fill="#f5f5f5"/><path d="m462.378 177.41-76.201 197.72 13.907 36.084c.706 1.831 3.231 1.831 3.937 0l90.108-233.804z" fill="#e6e6e6"/><path d="m163.924 177.41 90.108 233.804c.706 1.831 3.231 1.831 3.937 0l90.108-233.804z" fill="#29b6f6"/><path d="m316.326 177.41-76.201 197.72 13.907 36.084c.706 1.831 3.231 1.831 3.937 0l90.108-233.804z" fill="#03a9f4"/><path d="m100.626 2.685 7.761 15.774c3.178 6.46 9.321 10.937 16.428 11.973l17.353 2.529c3.938.574 5.511 5.429 2.661 8.216l-12.557 12.278c-5.142 5.028-7.489 12.273-6.275 19.372l2.964 17.337c.673 3.935-3.444 6.935-6.967 5.078l-15.521-8.186c-6.356-3.352-13.95-3.352-20.306 0l-15.521 8.186c-3.523 1.858-7.64-1.143-6.967-5.078l2.964-17.337c1.214-7.1-1.133-14.344-6.275-19.372l-12.557-12.278c-2.85-2.787-1.277-7.642 2.661-8.216l17.353-2.529c7.106-1.036 13.25-5.513 16.428-11.973l7.761-15.774c1.761-3.58 6.85-3.58 8.612 0z" fill="#ffd54f"/><path d="m142.167 32.961-17.353-2.529c-7.106-1.036-13.25-5.513-16.428-11.973l-7.761-15.774c-1.761-3.58-6.85-3.58-8.612 0-1.347 16.038 6.253 32.809 8.881 45.218 4.839 22.849 2.418 33.631 3.177 38.069.816.311 1.617.672 2.4 1.085l15.521 8.186c3.523 1.858 7.64-1.143 6.967-5.078l-2.964-17.337c-1.214-7.1 1.133-14.344 6.275-19.372l12.557-12.278c2.851-2.788 1.279-7.643-2.66-8.217z" fill="#ffc107"/><path d="m330.358 418.878 7.761 15.774c3.178 6.46 9.321 10.937 16.428 11.973l17.353 2.529c3.938.574 5.511 5.429 2.661 8.216l-12.557 12.278c-5.142 5.028-7.489 12.273-6.275 19.372l2.964 17.337c.673 3.935-3.444 6.935-6.967 5.078l-15.521-8.186c-6.356-3.352-13.95-3.352-20.306 0l-15.521 8.186c-3.523 1.858-7.64-1.143-6.967-5.078l2.964-17.337c1.214-7.1-1.133-14.344-6.275-19.372l-12.557-12.278c-2.85-2.787-1.277-7.642 2.661-8.216l17.353-2.529c7.106-1.036 13.25-5.513 16.428-11.973l7.761-15.774c1.762-3.58 6.851-3.58 8.612 0z" fill="#ffd54f"/><path d="m371.9 449.154-17.353-2.53c-7.106-1.036-13.25-5.513-16.428-11.973l-7.761-15.774c-1.761-3.58-6.85-3.58-8.612 0-1.347 16.038 6.253 32.809 8.881 45.218 4.839 22.849 2.418 33.632 3.177 38.069.816.311 1.617.672 2.4 1.085l15.521 8.186c3.523 1.858 7.64-1.143 6.967-5.078l-2.964-17.337c-1.214-7.1 1.133-14.344 6.275-19.372l12.557-12.278c2.851-2.786 1.278-7.641-2.66-8.216z" fill="#ffc107"/><path d="m496.547 190.068h-481.094c-8.535 0-15.453-6.918-15.453-15.452 0-8.534 6.918-15.453 15.453-15.453h481.095c8.534 0 15.453 6.918 15.453 15.453-.001 8.534-6.919 15.452-15.454 15.452z" fill="#db7629"/><path d="m496.547 159.163h-30.905c8.534 0 15.453 6.918 15.453 15.453 0 8.534-6.919 15.453-15.453 15.453h30.905c8.534 0 15.453-6.918 15.453-15.453s-6.919-15.453-15.453-15.453z" fill="#c96c26"/><path d="m338.857 120.376 7.761 15.774c3.178 6.46 9.321 10.937 16.428 11.973l17.353 2.529c3.938.574 5.511 5.429 2.661 8.216l-12.557 12.278c-5.142 5.028-7.489 12.273-6.275 19.372l2.964 17.337c.673 3.935-3.444 6.935-6.967 5.078l-15.521-8.186c-6.356-3.352-13.95-3.352-20.306 0l-15.521 8.186c-3.523 1.858-7.64-1.143-6.967-5.078l2.964-17.337c1.214-7.1-1.133-14.344-6.275-19.372l-12.557-12.278c-2.85-2.787-1.277-7.642 2.661-8.216l17.353-2.529c7.106-1.036 13.25-5.513 16.428-11.973l7.761-15.774c1.762-3.58 6.851-3.58 8.612 0z" fill="#ffd54f"/><path d="m380.399 150.653-17.353-2.529c-7.106-1.036-13.25-5.513-16.428-11.973l-7.761-15.774c-1.761-3.58-6.85-3.58-8.612 0-1.347 16.038 6.253 32.809 8.881 45.218 4.839 22.849 2.418 33.632 3.177 38.069.816.311 1.617.672 2.4 1.085l15.521 8.186c3.523 1.858 7.64-1.143 6.967-5.078l-2.964-17.337c-1.214-7.1 1.133-14.344 6.275-19.372l12.557-12.278c2.851-2.788 1.278-7.643-2.66-8.217z" fill="#ffc107"/></svg>