<svg enable-background="new 0 0 56 56" viewBox="0 0 56 56" xmlns="http://www.w3.org/2000/svg"><path d="m28 0c-15.439 0-28 12.561-28 28s12.561 28 28 28 28-12.561 28-28-12.561-28-28-28zm0 54c-14.337 0-26-11.664-26-26s11.663-26 26-26 26 11.664 26 26-11.663 26-26 26z"/><path d="m40 16h-24c-.553 0-1 .448-1 1s.447 1 1 1h24c.553 0 1-.448 1-1s-.447-1-1-1z"/><path d="m40 27h-24c-.553 0-1 .448-1 1s.447 1 1 1h24c.553 0 1-.448 1-1s-.447-1-1-1z"/><path d="m40 38h-24c-.553 0-1 .448-1 1s.447 1 1 1h24c.553 0 1-.448 1-1s-.447-1-1-1z"/></svg>